<svg width="77" height="55" viewBox="0 0 77 55" fill="none" xmlns="http://www.w3.org/2000/svg">
<path fill-rule="evenodd" clip-rule="evenodd" d="M24.3281 28C24.3281 28 20.6202 25.618 19 20.0573C19 20.0573 28.7154 19.2258 36.964 16.223C36.964 16.223 47.8492 12.3345 51.579 12.1146C51.579 12.1146 59.096 10.7854 70 17.1813C70 17.1813 61.1426 13.7817 54.6239 15.5382C54.6239 15.5382 47.702 16.3984 37.7256 22.9333C37.7256 22.9333 32.0233 26.331 24.3281 28Z" fill="#1E6C6C"/>
<path fill-rule="evenodd" clip-rule="evenodd" d="M37.5863 24.2694C37.5863 24.2694 40.2866 22.3804 41.5663 22C41.5663 22 47.7582 22.0153 49.8994 30.6985C49.8994 30.6985 51.4287 41.7239 42.5613 42.989C42.5613 42.989 38.8776 43.3866 35.9695 39.3963C35.9695 39.3963 45.5043 44.0387 46.7901 33.5349C46.7901 33.5349 47.9192 24.4618 37.5863 24.2694Z" fill="#6D6F84"/>
<path fill-rule="evenodd" clip-rule="evenodd" d="M37.099 26.2524C37.099 26.2524 41.5285 21.8044 45.8855 28.0085C45.8855 28.0085 49.0084 32.9813 45.6229 37.7656C45.6229 37.7656 41.5439 43.2575 36.4432 37.18C36.4432 37.18 34.9678 35.128 35.0005 33.0823C35.0005 33.0823 37.7531 35.4329 39.3285 31.9112C39.3285 31.9112 40.5231 27.7074 37.099 26.2524Z" fill="#322F39"/>
<path fill-rule="evenodd" clip-rule="evenodd" d="M65.8207 32C65.8207 32 68.7293 34.6256 70 40.7569C70 40.7569 62.3797 41.6735 55.9103 44.9846C55.9103 44.9846 47.373 49.2714 44.4477 49.5138C44.4477 49.5138 38.5521 50.9794 30 43.9274C30 43.9274 36.9469 47.6754 42.0596 45.7393C42.0596 45.7393 47.4888 44.7911 55.3134 37.5864C55.3134 37.5864 59.7858 33.8399 65.8207 32Z" fill="#429DEB"/>
</svg>
